<svg width="454" height="186" viewBox="0 0 454 186" fill="none" xmlns="http://www.w3.org/2000/svg">
<path d="M0 6C0 2.68629 2.69222 0 6.01325 0H64.6424C111.967 0 150.331 38.2797 150.331 85.5V106.5C150.331 131.353 130.139 151.5 105.232 151.5H16.5364C7.40361 151.5 0 144.113 0 135V6Z" fill="white"/>
<path d="M27.0596 25.5H63.139C95.519 25.5 121.768 51.6913 121.768 84V109.5C121.768 118.613 114.365 126 105.232 126H27.0596V25.5Z" fill="#1177FF"/>
<path d="M234.444 107.58C234.444 90.6601 228.383 82.2001 216.26 82.2001C204.138 82.2001 198.076 90.6601 198.076 107.58C198.076 124.5 204.138 132.96 216.26 132.96C228.383 132.96 234.444 124.5 234.444 107.58ZM243.32 137.388C236.681 144.516 227.662 148.08 216.26 148.08C204.859 148.08 195.839 144.516 189.201 137.388C182.562 130.188 179.243 120.252 179.243 107.58C179.243 94.9081 182.562 85.0081 189.201 77.8801C195.839 70.6801 204.859 67.0801 216.26 67.0801C227.662 67.0801 236.681 70.6801 243.32 77.8801C249.959 85.0081 253.278 94.9081 253.278 107.58C253.278 120.252 249.959 130.188 243.32 137.388ZM277.426 147C275.766 147 274.323 146.388 273.096 145.164C271.942 143.94 271.364 142.5 271.364 140.844V74.3161C271.364 72.6601 271.942 71.2201 273.096 69.9961C274.323 68.7721 275.766 68.1601 277.426 68.1601H315.742C317.402 68.1601 318.809 68.7721 319.963 69.9961C321.19 71.2201 321.803 72.6601 321.803 74.3161V76.8001C321.803 78.4561 321.19 79.8961 319.963 81.1201C318.809 82.3441 317.402 82.9561 315.742 82.9561H290.631C290.053 82.9561 289.765 83.2441 289.765 83.8201V98.0761C289.765 98.7241 290.053 99.0481 290.631 99.0481H313.577C315.237 99.0481 316.644 99.6601 317.799 100.884C319.025 102.108 319.639 103.548 319.639 105.204V106.824C319.639 108.48 319.025 109.92 317.799 111.144C316.644 112.368 315.237 112.98 313.577 112.98H290.631C290.053 112.98 289.765 113.268 289.765 113.844V131.34C289.765 131.916 290.053 132.204 290.631 132.204H315.742C317.402 132.204 318.809 132.816 319.963 134.04C321.19 135.264 321.803 136.704 321.803 138.36V140.844C321.803 142.5 321.19 143.94 319.963 145.164C318.809 146.388 317.402 147 315.742 147H277.426ZM351.395 147C349.735 147 348.292 146.388 347.065 145.164C345.911 143.94 345.333 142.5 345.333 140.844V74.3161C345.333 72.6601 345.911 71.2201 347.065 69.9961C348.292 68.7721 349.735 68.1601 351.395 68.1601H359.404C361.064 68.1601 362.471 68.7721 363.626 69.9961C364.852 71.2201 365.466 72.6601 365.466 74.3161V140.844C365.466 142.5 364.852 143.94 363.626 145.164C362.471 146.388 361.064 147 359.404 147H351.395ZM393.517 83.3881C391.858 83.3881 390.415 82.7761 389.188 81.5521C387.961 80.3281 387.348 78.8881 387.348 77.2321V74.3161C387.348 72.6601 387.961 71.2201 389.188 69.9961C390.415 68.7721 391.858 68.1601 393.517 68.1601H441.792C443.451 68.1601 444.895 68.7721 446.121 69.9961C447.348 71.2201 447.961 72.6601 447.961 74.3161V77.2321C447.961 78.8881 447.348 80.3281 446.121 81.5521C444.895 82.7761 443.451 83.3881 441.792 83.3881H427.937C427.36 83.3881 427.071 83.6761 427.071 84.2521V140.844C427.071 142.5 426.458 143.94 425.231 145.164C424.005 146.388 422.561 147 420.902 147H414.407C412.748 147 411.305 146.388 410.078 145.164C408.851 143.94 408.238 142.5 408.238 140.844V84.2521C408.238 83.6761 407.949 83.3881 407.372 83.3881H393.517Z" fill="white"/>
</svg>
